<svg width="980" height="580" viewBox="0 0 980 580" fill="none" xmlns="http://www.w3.org/2000/svg">
<rect width="980" height="580" fill="white"/>
<rect width="980" height="580" fill="#FAFAFA"/>
<rect x="20" y="19" width="204" height="543" fill="#EDEDED"/>
<rect x="238" y="19" width="719" height="543" fill="#EDEDED"/>
<path d="M557.531 284.586C557.32 286.391 556.652 287.785 555.527 288.77C554.41 289.746 552.922 290.234 551.062 290.234C549.047 290.234 547.43 289.512 546.211 288.066C545 286.621 544.395 284.688 544.395 282.266V280.625C544.395 279.039 544.676 277.645 545.238 276.441C545.809 275.238 546.613 274.316 547.652 273.676C548.691 273.027 549.895 272.703 551.262 272.703C553.074 272.703 554.527 273.211 555.621 274.227C556.715 275.234 557.352 276.633 557.531 278.422H555.27C555.074 277.062 554.648 276.078 553.992 275.469C553.344 274.859 552.434 274.555 551.262 274.555C549.824 274.555 548.695 275.086 547.875 276.148C547.062 277.211 546.656 278.723 546.656 280.684V282.336C546.656 284.188 547.043 285.66 547.816 286.754C548.59 287.848 549.672 288.395 551.062 288.395C552.312 288.395 553.27 288.113 553.934 287.551C554.605 286.98 555.051 285.992 555.27 284.586H557.531ZM559.699 283.543C559.699 282.301 559.941 281.184 560.426 280.191C560.918 279.199 561.598 278.434 562.465 277.895C563.34 277.355 564.336 277.086 565.453 277.086C567.18 277.086 568.574 277.684 569.637 278.879C570.707 280.074 571.242 281.664 571.242 283.648V283.801C571.242 285.035 571.004 286.145 570.527 287.129C570.059 288.105 569.383 288.867 568.5 289.414C567.625 289.961 566.617 290.234 565.477 290.234C563.758 290.234 562.363 289.637 561.293 288.441C560.23 287.246 559.699 285.664 559.699 283.695V283.543ZM561.879 283.801C561.879 285.207 562.203 286.336 562.852 287.188C563.508 288.039 564.383 288.465 565.477 288.465C566.578 288.465 567.453 288.035 568.102 287.176C568.75 286.309 569.074 285.098 569.074 283.543C569.074 282.152 568.742 281.027 568.078 280.168C567.422 279.301 566.547 278.867 565.453 278.867C564.383 278.867 563.52 279.293 562.863 280.145C562.207 280.996 561.879 282.215 561.879 283.801ZM576.012 277.32L576.082 278.914C577.051 277.695 578.316 277.086 579.879 277.086C582.559 277.086 583.91 278.598 583.934 281.621V290H581.766V281.609C581.758 280.695 581.547 280.02 581.133 279.582C580.727 279.145 580.09 278.926 579.223 278.926C578.52 278.926 577.902 279.113 577.371 279.488C576.84 279.863 576.426 280.355 576.129 280.965V290H573.961V277.32H576.012ZM590.145 274.25V277.32H592.512V278.996H590.145V286.859C590.145 287.367 590.25 287.75 590.461 288.008C590.672 288.258 591.031 288.383 591.539 288.383C591.789 288.383 592.133 288.336 592.57 288.242V290C592 290.156 591.445 290.234 590.906 290.234C589.938 290.234 589.207 289.941 588.715 289.355C588.223 288.77 587.977 287.938 587.977 286.859V278.996H585.668V277.32H587.977V274.25H590.145ZM600.316 290.234C598.598 290.234 597.199 289.672 596.121 288.547C595.043 287.414 594.504 285.902 594.504 284.012V283.613C594.504 282.355 594.742 281.234 595.219 280.25C595.703 279.258 596.375 278.484 597.234 277.93C598.102 277.367 599.039 277.086 600.047 277.086C601.695 277.086 602.977 277.629 603.891 278.715C604.805 279.801 605.262 281.355 605.262 283.379V284.281H596.672C596.703 285.531 597.066 286.543 597.762 287.316C598.465 288.082 599.355 288.465 600.434 288.465C601.199 288.465 601.848 288.309 602.379 287.996C602.91 287.684 603.375 287.27 603.773 286.754L605.098 287.785C604.035 289.418 602.441 290.234 600.316 290.234ZM600.047 278.867C599.172 278.867 598.438 279.188 597.844 279.828C597.25 280.461 596.883 281.352 596.742 282.5H603.094V282.336C603.031 281.234 602.734 280.383 602.203 279.781C601.672 279.172 600.953 278.867 600.047 278.867ZM609.832 277.32L609.902 278.914C610.871 277.695 612.137 277.086 613.699 277.086C616.379 277.086 617.73 278.598 617.754 281.621V290H615.586V281.609C615.578 280.695 615.367 280.02 614.953 279.582C614.547 279.145 613.91 278.926 613.043 278.926C612.34 278.926 611.723 279.113 611.191 279.488C610.66 279.863 610.246 280.355 609.949 280.965V290H607.781V277.32H609.832ZM623.965 274.25V277.32H626.332V278.996H623.965V286.859C623.965 287.367 624.07 287.75 624.281 288.008C624.492 288.258 624.852 288.383 625.359 288.383C625.609 288.383 625.953 288.336 626.391 288.242V290C625.82 290.156 625.266 290.234 624.727 290.234C623.758 290.234 623.027 289.941 622.535 289.355C622.043 288.77 621.797 287.938 621.797 286.859V278.996H619.488V277.32H621.797V274.25H623.965Z" fill="#707070"/>
<path d="M88.0078 282.395C86.0781 281.84 84.6719 281.16 83.7891 280.355C82.9141 279.543 82.4766 278.543 82.4766 277.355C82.4766 276.012 83.0117 274.902 84.082 274.027C85.1602 273.145 86.5586 272.703 88.2773 272.703C89.4492 272.703 90.4922 272.93 91.4062 273.383C92.3281 273.836 93.0391 274.461 93.5391 275.258C94.0469 276.055 94.3008 276.926 94.3008 277.871H92.0391C92.0391 276.84 91.7109 276.031 91.0547 275.445C90.3984 274.852 89.4727 274.555 88.2773 274.555C87.168 274.555 86.3008 274.801 85.6758 275.293C85.0586 275.777 84.75 276.453 84.75 277.32C84.75 278.016 85.043 278.605 85.6289 279.09C86.2227 279.566 87.2266 280.004 88.6406 280.402C90.0625 280.801 91.1719 281.242 91.9688 281.727C92.7734 282.203 93.3672 282.762 93.75 283.402C94.1406 284.043 94.3359 284.797 94.3359 285.664C94.3359 287.047 93.7969 288.156 92.7188 288.992C91.6406 289.82 90.1992 290.234 88.3945 290.234C87.2227 290.234 86.1289 290.012 85.1133 289.566C84.0977 289.113 83.3125 288.496 82.7578 287.715C82.2109 286.934 81.9375 286.047 81.9375 285.055H84.1992C84.1992 286.086 84.5781 286.902 85.3359 287.504C86.1016 288.098 87.1211 288.395 88.3945 288.395C89.582 288.395 90.4922 288.152 91.125 287.668C91.7578 287.184 92.0742 286.523 92.0742 285.688C92.0742 284.852 91.7812 284.207 91.1953 283.754C90.6094 283.293 89.5469 282.84 88.0078 282.395ZM99.2461 290H97.0781V277.32H99.2461V290ZM96.9023 273.957C96.9023 273.605 97.0078 273.309 97.2188 273.066C97.4375 272.824 97.7578 272.703 98.1797 272.703C98.6016 272.703 98.9219 272.824 99.1406 273.066C99.3594 273.309 99.4688 273.605 99.4688 273.957C99.4688 274.309 99.3594 274.602 99.1406 274.836C98.9219 275.07 98.6016 275.188 98.1797 275.188C97.7578 275.188 97.4375 275.07 97.2188 274.836C97.0078 274.602 96.9023 274.309 96.9023 273.957ZM102.199 283.555C102.199 281.609 102.66 280.047 103.582 278.867C104.504 277.68 105.711 277.086 107.203 277.086C108.688 277.086 109.863 277.594 110.73 278.609V272H112.898V290H110.906L110.801 288.641C109.934 289.703 108.727 290.234 107.18 290.234C105.711 290.234 104.512 289.633 103.582 288.43C102.66 287.227 102.199 285.656 102.199 283.719V283.555ZM104.367 283.801C104.367 285.238 104.664 286.363 105.258 287.176C105.852 287.988 106.672 288.395 107.719 288.395C109.094 288.395 110.098 287.777 110.73 286.543V280.719C110.082 279.523 109.086 278.926 107.742 278.926C106.68 278.926 105.852 279.336 105.258 280.156C104.664 280.977 104.367 282.191 104.367 283.801ZM121.535 290.234C119.816 290.234 118.418 289.672 117.34 288.547C116.262 287.414 115.723 285.902 115.723 284.012V283.613C115.723 282.355 115.961 281.234 116.438 280.25C116.922 279.258 117.594 278.484 118.453 277.93C119.32 277.367 120.258 277.086 121.266 277.086C122.914 277.086 124.195 277.629 125.109 278.715C126.023 279.801 126.48 281.355 126.48 283.379V284.281H117.891C117.922 285.531 118.285 286.543 118.98 287.316C119.684 288.082 120.574 288.465 121.652 288.465C122.418 288.465 123.066 288.309 123.598 287.996C124.129 287.684 124.594 287.27 124.992 286.754L126.316 287.785C125.254 289.418 123.66 290.234 121.535 290.234ZM121.266 278.867C120.391 278.867 119.656 279.188 119.062 279.828C118.469 280.461 118.102 281.352 117.961 282.5H124.312V282.336C124.25 281.234 123.953 280.383 123.422 279.781C122.891 279.172 122.172 278.867 121.266 278.867ZM139.734 283.801C139.734 285.738 139.289 287.297 138.398 288.477C137.508 289.648 136.312 290.234 134.812 290.234C133.211 290.234 131.973 289.668 131.098 288.535L130.992 290H129V272H131.168V278.715C132.043 277.629 133.25 277.086 134.789 277.086C136.328 277.086 137.535 277.668 138.41 278.832C139.293 279.996 139.734 281.59 139.734 283.613V283.801ZM137.566 283.555C137.566 282.078 137.281 280.938 136.711 280.133C136.141 279.328 135.32 278.926 134.25 278.926C132.82 278.926 131.793 279.59 131.168 280.918V286.402C131.832 287.73 132.867 288.395 134.273 288.395C135.312 288.395 136.121 287.992 136.699 287.188C137.277 286.383 137.566 285.172 137.566 283.555ZM150.305 290C150.18 289.75 150.078 289.305 150 288.664C148.992 289.711 147.789 290.234 146.391 290.234C145.141 290.234 144.113 289.883 143.309 289.18C142.512 288.469 142.113 287.57 142.113 286.484C142.113 285.164 142.613 284.141 143.613 283.414C144.621 282.68 146.035 282.312 147.855 282.312H149.965V281.316C149.965 280.559 149.738 279.957 149.285 279.512C148.832 279.059 148.164 278.832 147.281 278.832C146.508 278.832 145.859 279.027 145.336 279.418C144.812 279.809 144.551 280.281 144.551 280.836H142.371C142.371 280.203 142.594 279.594 143.039 279.008C143.492 278.414 144.102 277.945 144.867 277.602C145.641 277.258 146.488 277.086 147.41 277.086C148.871 277.086 150.016 277.453 150.844 278.188C151.672 278.914 152.102 279.918 152.133 281.199V287.035C152.133 288.199 152.281 289.125 152.578 289.812V290H150.305ZM146.707 288.348C147.387 288.348 148.031 288.172 148.641 287.82C149.25 287.469 149.691 287.012 149.965 286.449V283.848H148.266C145.609 283.848 144.281 284.625 144.281 286.18C144.281 286.859 144.508 287.391 144.961 287.773C145.414 288.156 145.996 288.348 146.707 288.348ZM161.66 279.266C161.332 279.211 160.977 279.184 160.594 279.184C159.172 279.184 158.207 279.789 157.699 281V290H155.531V277.32H157.641L157.676 278.785C158.387 277.652 159.395 277.086 160.699 277.086C161.121 277.086 161.441 277.141 161.66 277.25V279.266Z" fill="#707070"/>
</svg>