<svg width="165" height="25" viewBox="0 0 165 25" fill="none" xmlns="http://www.w3.org/2000/svg">
<g opacity="0.7">
<path d="M112.307 4.42114V19.7975H111.291V17.2486C110.863 18.0914 110.262 18.7407 109.489 19.1966C108.715 19.6525 107.838 19.8804 106.857 19.8804C105.848 19.8804 104.936 19.6456 104.121 19.1759C103.306 18.7061 102.664 18.0568 102.194 17.2279C101.738 16.399 101.51 15.4526 101.51 14.3889C101.51 13.3251 101.738 12.3787 102.194 11.5498C102.664 10.7071 103.306 10.0578 104.121 9.60187C104.936 9.13215 105.848 8.89729 106.857 8.89729C107.824 8.89729 108.687 9.12524 109.447 9.58115C110.221 10.0371 110.829 10.6726 111.271 11.4877V4.42114H112.307ZM106.919 18.9479C107.748 18.9479 108.487 18.7545 109.136 18.3677C109.799 17.9808 110.317 17.442 110.691 16.7513C111.077 16.0605 111.271 15.273 111.271 14.3889C111.271 13.5047 111.077 12.7172 110.691 12.0265C110.317 11.3357 109.799 10.7969 109.136 10.4101C108.487 10.0232 107.748 9.82982 106.919 9.82982C106.09 9.82982 105.344 10.0232 104.681 10.4101C104.032 10.7969 103.513 11.3357 103.127 12.0265C102.754 12.7172 102.567 13.5047 102.567 14.3889C102.567 15.273 102.754 16.0605 103.127 16.7513C103.513 17.442 104.032 17.9808 104.681 18.3677C105.344 18.7545 106.09 18.9479 106.919 18.9479Z" fill="white"/>
<path d="M125.089 14.6375H115.784C115.812 15.4803 116.026 16.2332 116.427 16.8963C116.827 17.5457 117.366 18.0499 118.043 18.4091C118.734 18.7683 119.508 18.9479 120.364 18.9479C121.069 18.9479 121.718 18.8236 122.312 18.5749C122.92 18.3124 123.424 17.9325 123.825 17.4351L124.426 18.119C123.956 18.6854 123.362 19.1206 122.644 19.4245C121.939 19.7285 121.172 19.8804 120.343 19.8804C119.266 19.8804 118.306 19.6456 117.463 19.1759C116.62 18.7061 115.957 18.0568 115.473 17.2279C115.004 16.399 114.769 15.4526 114.769 14.3889C114.769 13.3389 114.99 12.3995 115.432 11.5705C115.888 10.7278 116.51 10.0716 117.297 9.60187C118.085 9.13215 118.969 8.89729 119.95 8.89729C120.93 8.89729 121.808 9.13215 122.581 9.60187C123.369 10.0578 123.984 10.7002 124.426 11.5291C124.882 12.358 125.11 13.2975 125.11 14.3474L125.089 14.6375ZM119.95 9.8091C119.19 9.8091 118.506 9.98179 117.898 10.3272C117.29 10.6587 116.8 11.1354 116.427 11.7571C116.068 12.3649 115.86 13.0557 115.805 13.8293H124.094C124.053 13.0557 123.846 12.3649 123.472 11.7571C123.099 11.1492 122.609 10.6726 122.001 10.3272C121.393 9.98179 120.709 9.8091 119.95 9.8091Z" fill="white"/>
<path d="M130.325 19.8804C129.455 19.8804 128.626 19.7492 127.838 19.4867C127.051 19.2242 126.436 18.8926 125.994 18.492L126.471 17.6631C126.913 18.0361 127.479 18.3469 128.17 18.5956C128.875 18.8443 129.607 18.9686 130.367 18.9686C131.458 18.9686 132.259 18.789 132.77 18.4298C133.295 18.0706 133.558 17.5733 133.558 16.9378C133.558 16.4819 133.413 16.1227 133.123 15.8602C132.846 15.5977 132.501 15.4043 132.087 15.28C131.672 15.1556 131.099 15.0244 130.367 14.8862C129.51 14.7342 128.819 14.5685 128.294 14.3889C127.769 14.2093 127.32 13.9191 126.947 13.5185C126.574 13.1179 126.388 12.5652 126.388 11.8607C126.388 11.0041 126.74 10.2995 127.445 9.74693C128.163 9.18051 129.178 8.89729 130.491 8.89729C131.182 8.89729 131.866 8.994 132.542 9.18741C133.219 9.38083 133.772 9.63641 134.2 9.95416L133.724 10.7831C133.282 10.4653 132.777 10.2236 132.211 10.0578C131.645 9.89199 131.064 9.8091 130.47 9.8091C129.462 9.8091 128.702 9.99561 128.191 10.3686C127.68 10.7416 127.424 11.2321 127.424 11.8399C127.424 12.3235 127.569 12.7034 127.859 12.9797C128.149 13.2422 128.502 13.4425 128.916 13.5807C129.344 13.705 129.938 13.8432 130.698 13.9951C131.541 14.1471 132.218 14.3129 132.729 14.4925C133.254 14.6583 133.696 14.9346 134.055 15.3214C134.414 15.7082 134.594 16.2401 134.594 16.9171C134.594 17.8151 134.221 18.5334 133.475 19.0722C132.729 19.611 131.679 19.8804 130.325 19.8804Z" fill="white"/>
<path d="M136.76 8.98018H137.797V19.7975H136.76V8.98018ZM137.278 6.34837C137.044 6.34837 136.843 6.27239 136.678 6.12042C136.512 5.95464 136.429 5.75432 136.429 5.51946C136.429 5.2846 136.512 5.08428 136.678 4.91849C136.843 4.75271 137.044 4.66982 137.278 4.66982C137.513 4.66982 137.714 4.75271 137.879 4.91849C138.045 5.07046 138.128 5.26387 138.128 5.49873C138.128 5.73359 138.045 5.93392 137.879 6.0997C137.714 6.26548 137.513 6.34837 137.278 6.34837Z" fill="white"/>
<path d="M151.178 8.98018V18.6371C151.178 20.433 150.743 21.7593 149.873 22.6159C149.002 23.4724 147.69 23.9007 145.935 23.9007C144.941 23.9007 144.001 23.7487 143.117 23.4448C142.233 23.1408 141.521 22.7195 140.983 22.1807L141.542 21.3932C142.081 21.8906 142.73 22.2774 143.49 22.5537C144.25 22.83 145.058 22.9682 145.915 22.9682C147.351 22.9682 148.415 22.6228 149.106 21.932C149.797 21.2551 150.142 20.1982 150.142 18.7614V16.9378C149.7 17.7253 149.085 18.3331 148.298 18.7614C147.51 19.1897 146.626 19.4038 145.645 19.4038C144.637 19.4038 143.718 19.1828 142.889 18.7407C142.074 18.2848 141.432 17.6562 140.962 16.8549C140.492 16.0536 140.257 15.1487 140.257 14.1402C140.257 13.1317 140.492 12.2268 140.962 11.4255C141.432 10.6242 142.074 10.0025 142.889 9.56043C143.718 9.11834 144.637 8.89729 145.645 8.89729C146.64 8.89729 147.538 9.11834 148.339 9.56043C149.14 10.0025 149.755 10.6242 150.184 11.4255V8.98018H151.178ZM145.728 18.4713C146.571 18.4713 147.331 18.2917 148.008 17.9325C148.685 17.5595 149.21 17.0483 149.583 16.399C149.969 15.7359 150.163 14.9829 150.163 14.1402C150.163 13.2975 149.969 12.5514 149.583 11.9021C149.21 11.2528 148.685 10.7485 148.008 10.3893C147.331 10.0163 146.571 9.82982 145.728 9.82982C144.885 9.82982 144.126 10.0163 143.449 10.3893C142.785 10.7485 142.26 11.2528 141.874 11.9021C141.501 12.5514 141.314 13.2975 141.314 14.1402C141.314 14.9829 141.501 15.7359 141.874 16.399C142.26 17.0483 142.785 17.5595 143.449 17.9325C144.126 18.2917 144.885 18.4713 145.728 18.4713Z" fill="white"/>
<path d="M160.123 8.89729C161.477 8.89729 162.548 9.29103 163.335 10.0785C164.123 10.866 164.516 11.9988 164.516 13.4771V19.7975H163.48V13.5599C163.48 12.3442 163.169 11.4186 162.548 10.7831C161.94 10.1476 161.083 9.82982 159.978 9.82982C158.707 9.82982 157.705 10.2097 156.973 10.9696C156.241 11.7294 155.875 12.7518 155.875 14.0366V19.7975H154.839V8.98018H155.833V11.3219C156.206 10.562 156.759 9.96798 157.491 9.5397C158.237 9.11143 159.115 8.89729 160.123 8.89729Z" fill="white"/>
</g>
<path fill-rule="evenodd" clip-rule="evenodd" d="M50.0846 19.2841H48.7318V2.97461H50.0846V19.2841ZM79.7105 8.61467V10.434C80.3661 9.07088 81.3405 8.72706 82.7577 8.63681V10.0663C81.9749 10.1527 81.4666 10.2834 80.8538 10.8033C80.0071 11.538 79.7728 12.2295 79.7728 13.3556V19.2841H78.3561V8.61467H79.7105ZM62.504 11.9714C61.7229 9.8271 59.6918 8.35716 57.4268 8.35716C54.4007 8.35716 52.0091 10.8879 52.0091 13.9612C52.0091 17.0345 54.4424 19.5465 57.4479 19.5465C59.5656 19.5465 61.5529 18.2005 62.4055 16.2229H60.9087C60.2271 17.4664 58.8191 18.3118 57.4263 18.3118C55.3719 18.3118 53.5097 16.5584 53.4063 14.4601H62.8856C62.8651 13.5726 62.8229 12.8146 62.504 11.9714ZM57.4479 9.56745C55.3724 9.56745 53.7858 11.1913 53.448 13.2254H61.4685C61.0024 11.2129 59.5635 9.56745 57.4479 9.56745ZM45.1064 10.2745C44.309 9.22085 42.6747 8.35716 41.002 8.35716C37.9326 8.35716 35.3943 10.7567 35.3943 13.9407C35.3943 17.101 37.9326 19.5465 41.002 19.5465C42.7164 19.5465 44.0909 18.8328 45.1064 17.4249V19.284H46.4614V14.1246H46.4576C46.4598 14.0636 46.4614 14.0022 46.4614 13.9407C46.4614 12.5112 45.9477 11.2406 45.1064 10.2745ZM36.7275 13.9402C36.7275 16.2988 38.652 18.3119 40.9808 18.3119C43.2869 18.3119 45.1064 16.2988 45.1069 13.9607C45.1069 11.6221 43.3492 9.56694 41.0025 9.56694C38.6736 9.56694 36.7275 11.5584 36.7275 13.9402ZM94.4061 13.9407C94.4061 12.5112 93.8935 11.2406 93.0511 10.2745C92.2554 9.22085 90.6184 8.35716 88.9446 8.35716C85.8779 8.35716 83.339 10.7567 83.339 13.9407C83.339 17.101 85.8779 19.5465 88.9446 19.5465C90.6606 19.5465 92.0356 18.8328 93.0511 17.4249V19.284H94.4061V14.1246H94.4012C94.4018 14.104 94.4025 14.0835 94.4032 14.063C94.4047 14.0223 94.4061 13.9816 94.4061 13.9407ZM84.6712 13.9402C84.6712 16.2988 86.5957 18.3119 88.9245 18.3119C91.2306 18.3119 93.0512 16.2988 93.0517 13.9607C93.0517 11.6221 91.2951 9.56694 88.9451 9.56694C86.6179 9.56694 84.6712 11.5584 84.6712 13.9402ZM74.4827 10.2667C73.7167 9.17988 72.0278 8.35716 70.3144 8.35716C67.3073 8.35716 64.9801 10.9964 64.9801 14.0039C64.9801 17.0556 67.4356 19.5465 70.4194 19.5465C72.0467 19.5465 73.805 18.7653 74.4827 17.1851V19.552C74.4827 21.8474 72.8322 23.4486 70.6095 23.4486C69.7628 23.4486 68.8117 23.1662 68.1345 22.6264C67.5406 22.1724 67.0967 21.415 66.7378 20.7656H65.3617C65.5528 21.3912 65.7222 21.8043 66.0801 22.3446C67.0761 23.773 68.7895 24.6606 70.5028 24.6606C72.1344 24.6606 73.8261 23.9679 74.8638 22.6486C75.7533 21.5225 75.8377 20.6338 75.8377 19.206V14.0039C75.8372 12.6009 75.3283 11.2799 74.4827 10.2667ZM66.3145 13.8959C66.3145 16.2761 68.0284 18.3119 70.4195 18.3119C72.7683 18.3119 74.4828 16.2124 74.4828 13.8959C74.4828 11.5584 72.6622 9.56694 70.3345 9.56694C68.0062 9.56694 66.3145 11.58 66.3145 13.8959Z" fill="white"/>
<path fill-rule="evenodd" clip-rule="evenodd" d="M20.5741 9.09208C22.3112 16.1152 25.8272 17.6222 25.8272 17.6222C25.8272 17.6222 19.833 16.2724 15.8704 11.2701C13.4587 8.22561 11.1429 2.43773 11.1429 2.43773L20.0246 0C20.0246 0 19.5639 5.00889 20.5741 9.09208ZM12.3707 20.7309C20.7647 22.7175 28.3434 19.0146 28.3434 19.0146C28.3434 19.0146 23.3111 20.4143 15.6566 14.3296C11.2046 10.7929 7.58145 4.98729 7.58145 4.98729L0 15.2647C0 15.2647 7.26368 19.5184 12.3707 20.7309ZM24.9681 15.3654C24.9681 15.3654 23.8308 12.9947 26.0086 8.62473C27.2748 6.08402 29.694 3.74207 29.694 3.74207L24.1074 0.932283C24.1074 0.932283 22.7638 4.93796 22.6637 7.58884C22.5013 11.9461 24.9681 15.3654 24.9681 15.3654ZM28.8041 10.8571C26.1591 11.7368 25.6741 13.1858 25.6741 13.1858C25.6741 13.1858 26.0335 10.7464 27.8475 9.02782C28.9524 7.98197 31.1107 6.90125 31.1107 6.90125L32.2768 10.4009C32.2768 10.4009 30.3442 10.3461 28.8041 10.8571Z" fill="white"/>
</svg>
